<svg width="2048" height="1024" viewBox="0 0 2048 1024" fill="none" xmlns="http://www.w3.org/2000/svg">
<g clip-path="url(#clip0_8_32)">
<rect width="2048" height="1024" fill="white"/>
<path d="M1024 0H0V1024H1024V0Z" fill="#050507"/>
<rect width="2048" height="1024" fill="#050507"/>
<path d="M512 696.32C613.797 696.32 696.32 613.797 696.32 512C696.32 410.203 613.797 327.68 512 327.68C410.203 327.68 327.68 410.203 327.68 512C327.68 613.797 410.203 696.32 512 696.32Z" stroke="#7C3AED" stroke-width="4"/>
<path d="M512 839.68C692.973 839.68 839.68 692.973 839.68 512C839.68 331.027 692.973 184.32 512 184.32C331.027 184.32 184.32 331.027 184.32 512C184.32 692.973 331.027 839.68 512 839.68Z" stroke="#7C3AED" stroke-width="4"/>
<path d="M655.36 655.36L360.448 524.288L446.464 495.616L342.016 391.168L366.592 366.592L655.36 655.36Z" fill="#EDEDF0"/>
<path d="M655.36 655.36L524.288 360.448L495.616 446.464L391.168 342.016L342.016 391.168L446.464 495.616L360.448 524.288L655.36 655.36Z" stroke="#EDEDF0" stroke-width="8"/>
<path d="M1076.95 568.1C1071.85 568.1 1067.2 567.2 1063 565.4C1058.8 563.6 1055.5 561 1053.1 557.6C1050.7 554.2 1049.5 550.05 1049.5 545.15C1049.5 540.15 1050.7 536.05 1053.1 532.85C1055.5 529.55 1058.8 527.1 1063 525.5C1067.2 523.8 1071.9 522.95 1077.1 522.95H1101.85V517.55C1101.85 512.35 1100.3 508.25 1097.2 505.25C1094.2 502.25 1089.7 500.75 1083.7 500.75C1077.8 500.75 1073.2 502.2 1069.9 505.1C1066.6 507.9 1064.35 511.7 1063.15 516.5L1052.05 512.9C1053.25 508.8 1055.15 505.1 1057.75 501.8C1060.35 498.4 1063.8 495.7 1068.1 493.7C1072.5 491.6 1077.75 490.55 1083.85 490.55C1093.25 490.55 1100.55 493 1105.75 497.9C1110.95 502.7 1113.55 509.5 1113.55 518.3V551.45C1113.55 554.45 1114.95 555.95 1117.75 555.95H1124.5V566H1114.15C1110.85 566 1108.2 565.1 1106.2 563.3C1104.2 561.4 1103.2 558.9 1103.2 555.8V555.05H1101.4C1100.3 556.95 1098.8 558.95 1096.9 561.05C1095.1 563.05 1092.6 564.7 1089.4 566C1086.2 567.4 1082.05 568.1 1076.95 568.1ZM1078.3 557.9C1085.3 557.9 1090.95 555.85 1095.25 551.75C1099.65 547.55 1101.85 541.7 1101.85 534.2V532.55H1077.55C1072.85 532.55 1068.95 533.6 1065.85 535.7C1062.85 537.7 1061.35 540.75 1061.35 544.85C1061.35 548.95 1062.9 552.15 1066 554.45C1069.2 556.75 1073.3 557.9 1078.3 557.9ZM1172.43 568.1C1165.33 568.1 1158.93 566.6 1153.23 563.6C1147.63 560.5 1143.18 556.1 1139.88 550.4C1136.68 544.7 1135.08 537.95 1135.08 530.15V528.5C1135.08 520.6 1136.68 513.85 1139.88 508.25C1143.18 502.55 1147.63 498.2 1153.23 495.2C1158.93 492.1 1165.33 490.55 1172.43 490.55C1179.43 490.55 1185.38 491.85 1190.28 494.45C1195.28 497.05 1199.18 500.5 1201.98 504.8C1204.88 509.1 1206.73 513.7 1207.53 518.6L1195.98 521C1195.48 517.4 1194.28 514.1 1192.38 511.1C1190.58 508.1 1188.03 505.7 1184.73 503.9C1181.43 502.1 1177.38 501.2 1172.58 501.2C1167.68 501.2 1163.28 502.3 1159.38 504.5C1155.58 506.7 1152.53 509.85 1150.23 513.95C1148.03 518.05 1146.93 522.95 1146.93 528.65V530C1146.93 535.7 1148.03 540.6 1150.23 544.7C1152.53 548.8 1155.58 551.95 1159.38 554.15C1163.28 556.35 1167.68 557.45 1172.58 557.45C1179.88 557.45 1185.43 555.55 1189.23 551.75C1193.13 547.95 1195.53 543.25 1196.43 537.65L1208.13 540.2C1207.03 545 1205.03 549.55 1202.13 553.85C1199.23 558.15 1195.28 561.6 1190.28 564.2C1185.38 566.8 1179.43 568.1 1172.43 568.1ZM1250.83 568.1C1245.73 568.1 1241.08 567.2 1236.88 565.4C1232.68 563.6 1229.38 561 1226.98 557.6C1224.58 554.2 1223.38 550.05 1223.38 545.15C1223.38 540.15 1224.58 536.05 1226.98 532.85C1229.38 529.55 1232.68 527.1 1236.88 525.5C1241.08 523.8 1245.78 522.95 1250.98 522.95H1275.73V517.55C1275.73 512.35 1274.18 508.25 1271.08 505.25C1268.08 502.25 1263.58 500.75 1257.58 500.75C1251.68 500.75 1247.08 502.2 1243.78 505.1C1240.48 507.9 1238.23 511.7 1237.03 516.5L1225.93 512.9C1227.13 508.8 1229.03 505.1 1231.63 501.8C1234.23 498.4 1237.68 495.7 1241.98 493.7C1246.38 491.6 1251.63 490.55 1257.73 490.55C1267.13 490.55 1274.43 493 1279.63 497.9C1284.83 502.7 1287.43 509.5 1287.43 518.3V551.45C1287.43 554.45 1288.83 555.95 1291.63 555.95H1298.38V566H1288.03C1284.73 566 1282.08 565.1 1280.08 563.3C1278.08 561.4 1277.08 558.9 1277.08 555.8V555.05H1275.28C1274.18 556.95 1272.68 558.95 1270.78 561.05C1268.98 563.05 1266.48 564.7 1263.28 566C1260.08 567.4 1255.93 568.1 1250.83 568.1ZM1252.18 557.9C1259.18 557.9 1264.83 555.85 1269.13 551.75C1273.53 547.55 1275.73 541.7 1275.73 534.2V532.55H1251.43C1246.73 532.55 1242.83 533.6 1239.73 535.7C1236.73 537.7 1235.23 540.75 1235.23 544.85C1235.23 548.95 1236.78 552.15 1239.88 554.45C1243.08 556.75 1247.18 557.9 1252.18 557.9ZM1343.61 568.1C1337.31 568.1 1331.51 566.6 1326.21 563.6C1320.91 560.6 1316.71 556.25 1313.61 550.55C1310.51 544.85 1308.96 538.1 1308.96 530.3V528.35C1308.96 520.55 1310.51 513.85 1313.61 508.25C1316.71 502.55 1320.86 498.2 1326.06 495.2C1331.36 492.1 1337.21 490.55 1343.61 490.55C1348.71 490.55 1353.01 491.25 1356.51 492.65C1360.11 493.95 1363.01 495.65 1365.21 497.75C1367.41 499.75 1369.11 501.9 1370.31 504.2H1372.41V461H1384.26V566H1372.71V553.85H1370.61C1368.61 557.55 1365.51 560.85 1361.31 563.75C1357.11 566.65 1351.21 568.1 1343.61 568.1ZM1346.76 557.6C1354.36 557.6 1360.51 555.2 1365.21 550.4C1370.01 545.5 1372.41 538.7 1372.41 530V528.65C1372.41 519.95 1370.01 513.2 1365.21 508.4C1360.51 503.5 1354.36 501.05 1346.76 501.05C1339.26 501.05 1333.06 503.5 1328.16 508.4C1323.36 513.2 1320.96 519.95 1320.96 528.65V530C1320.96 538.7 1323.36 545.5 1328.16 550.4C1333.06 555.2 1339.26 557.6 1346.76 557.6Z" fill="#EDEDF0"/>
<path d="M1405.64 581V569.75H1477.64V581H1405.64ZM1502.33 566V553.7H1524.68V468.8H1502.33V456.5H1560.83V468.8H1538.48V553.7H1560.83V566H1502.33ZM1590.02 566V456.5H1608.02L1641.47 550.25C1641.27 547.75 1641.02 544.7 1640.72 541.1C1640.52 537.4 1640.32 533.55 1640.12 529.55C1640.02 525.45 1639.97 521.6 1639.97 518V456.5H1653.02V566H1635.02L1601.72 472.25C1601.92 474.65 1602.12 477.7 1602.32 481.4C1602.52 485 1602.67 488.85 1602.77 492.95C1602.97 496.95 1603.07 500.8 1603.07 504.5V566H1590.02ZM1680.71 566V456.35H1745.21V468.65H1693.91V505.1H1741.31V517.4H1694.21V566H1680.71ZM1801.4 567.5C1794.8 567.5 1789.1 566.25 1784.3 563.75C1779.6 561.25 1775.95 557.65 1773.35 552.95C1770.85 548.15 1769.6 542.5 1769.6 536V486.5C1769.6 479.9 1770.85 474.25 1773.35 469.55C1775.95 464.85 1779.6 461.25 1784.3 458.75C1789.1 456.25 1794.8 455 1801.4 455C1808 455 1813.65 456.25 1818.35 458.75C1823.15 461.25 1826.8 464.85 1829.3 469.55C1831.9 474.25 1833.2 479.85 1833.2 486.35V536C1833.2 542.5 1831.9 548.15 1829.3 552.95C1826.8 557.65 1823.15 561.25 1818.35 563.75C1813.65 566.25 1808 567.5 1801.4 567.5ZM1801.4 555.35C1807.3 555.35 1811.8 553.7 1814.9 550.4C1818.1 547 1819.7 542.2 1819.7 536V486.5C1819.7 480.3 1818.1 475.55 1814.9 472.25C1811.8 468.85 1807.3 467.15 1801.4 467.15C1795.6 467.15 1791.1 468.85 1787.9 472.25C1784.7 475.55 1783.1 480.3 1783.1 486.5V536C1783.1 542.2 1784.7 547 1787.9 550.4C1791.1 553.7 1795.6 555.35 1801.4 555.35Z" fill="#7C3AED"/>
</g>
<defs>
<clipPath id="clip0_8_32">
<rect width="2048" height="1024" fill="white"/>
</clipPath>
</defs>
</svg>
